<?xml version="1.0" encoding="UTF-8"?>
<svg width="32" height="32" viewBox="0 0 32 32" xmlns="http://www.w3.org/2000/svg">
  <g transform="translate(16, 16) rotate(-45) translate(-16, -16)">
    <path fill="#007bff" d="M25.1,16.3c-0.1-0.3-0.3-0.6-0.5-0.8l-3.8-3.8c-0.6-0.6-1.5-0.6-2.1,0l-0.5,0.5l-1.5-1.5
      c-0.6-0.6-1.5-0.6-2.1,0l-0.5,0.5L12.6,9.7c-0.6-0.6-1.5-0.6-2.1,0l-0.5,0.5L8.5,8.7c-0.6-0.6-1.5-0.6-2.1,0L4.6,10.5
      c-0.6,0.6-0.6,1.5,0,2.1l12.7,12.7c0.3,0.3,0.7,0.4,1.1,0.4s0.8-0.1,1.1-0.4l5.8-5.8C25.5,17.8,25.4,17,25.1,16.3z"/>
    <path fill="#0056b3" d="M27.4,13.9l-3.8-3.8c-0.6-0.6-1.5-0.6-2.1,0l-0.5,0.5l-1.5-1.5c-0.6-0.6-1.5-0.6-2.1,0l-0.5,0.5L15.4,8.1
      c-0.6-0.6-1.5-0.6-2.1,0l-0.5,0.5L11.3,7c-0.6-0.6-1.5-0.6-2.1,0L7.4,8.8c-0.6,0.6-0.6,1.5,0,2.1l12.7,12.7
      c0.3,0.3,0.7,0.4,1.1,0.4s0.8-0.1,1.1-0.4l5.8-5.8C28.6,16.9,28.3,14.8,27.4,13.9z"/>
  </g>
</svg> 